<?xml version="1.0" encoding="UTF-8" standalone="no"?>
<!-- Generator: Adobe Illustrator 21.0.2, SVG Export Plug-In . SVG Version: 6.00 Build 0)  -->

<svg
   version="1.1"
   id="Layer_1"
   x="0px"
   y="0px"
   width="2272"
   height="1872"
   viewBox="0 0 2272 1872"
   enable-background="new 0 0 2272 1872"
   xml:space="preserve"
   sodipodi:docname="tp.svg"
   inkscape:version="1.2.1 (9c6d41e4, 2022-07-14)"
   xmlns:inkscape="http://www.inkscape.org/namespaces/inkscape"
   xmlns:sodipodi="http://sodipodi.sourceforge.net/DTD/sodipodi-0.dtd"
   xmlns="http://www.w3.org/2000/svg"
   xmlns:svg="http://www.w3.org/2000/svg"><sodipodi:namedview
   id="namedview186"
   pagecolor="#ffffff"
   bordercolor="#000000"
   borderopacity="0.25"
   inkscape:showpageshadow="2"
   inkscape:pageopacity="0.0"
   inkscape:pagecheckerboard="0"
   inkscape:deskcolor="#d1d1d1"
   showgrid="false"
   inkscape:zoom="0.12606838"
   inkscape:cx="1134.3051"
   inkscape:cy="936"
   inkscape:window-width="1309"
   inkscape:window-height="456"
   inkscape:window-x="0"
   inkscape:window-y="25"
   inkscape:window-maximized="0"
   inkscape:current-layer="Layer_1" /><defs
   id="defs2687" />





















<g
   id="g2372"
   style="fill:#00ea82;fill-opacity:1"
   transform="matrix(3.9841834,0,0,4.0962288,-3382.143,-5256.9577)">
	<g
   id="g2274"
   style="fill:#00ea82;fill-opacity:1">
		<path
   fill="#FFFFFF"
   d="m 964.5,1708.4 c 8.7,0.3 15.5,7.5 15.3,16.1 -0.2,8.6 -7.3,15.5 -16,15.4 -8.7,0 -15.7,-7.3 -15.5,-16.1 0.2,-8.8 7.5,-15.8 16.2,-15.4 z"
   id="path2272"
   style="fill:#00ea82;fill-opacity:1" />
	</g>
	<g
   id="g2278"
   style="fill:#00ea82;fill-opacity:1">
		<path
   fill="#FFFFFF"
   d="m 966.6,1667.8 c 8.7,0.6 15.2,8.1 14.7,16.6 -0.5,8.6 -7.8,15.2 -16.5,14.9 -8.7,-0.3 -15.5,-7.8 -15,-16.6 0.6,-8.9 8.1,-15.6 16.8,-14.9 z"
   id="path2276"
   style="fill:#00ea82;fill-opacity:1" />
	</g>
	<g
   id="g2282"
   style="fill:#00ea82;fill-opacity:1">
		<path
   fill="#FFFFFF"
   d="m 970.1,1627.2 c 4.3,0.5 8.1,2.6 10.6,5.7 2.5,3.1 3.9,7.1 3.5,11.4 -0.8,8.5 -8.3,14.9 -17,14.3 -8.7,-0.7 -15.2,-8.3 -14.3,-17.2 0.4,-4.4 2.5,-8.2 5.7,-10.8 3.1,-2.5 7.2,-3.8 11.5,-3.4 z"
   id="path2280"
   style="fill:#00ea82;fill-opacity:1" />
	</g>
	<g
   id="g2286"
   style="fill:#00ea82;fill-opacity:1">
		<path
   fill="#FFFFFF"
   d="m 975.3,1586.9 c 8.6,1.3 14.5,9.2 13.4,17.7 -1.1,8.5 -8.9,14.6 -17.6,13.6 -8.7,-1 -14.8,-8.9 -13.7,-17.7 1.3,-8.8 9.3,-14.9 17.9,-13.6 z"
   id="path2284"
   style="fill:#00ea82;fill-opacity:1" />
	</g>
	<g
   id="g2290"
   style="fill:#00ea82;fill-opacity:1">
		<path
   fill="#FFFFFF"
   d="m 982.1,1546.8 c 8.5,1.7 14.1,9.8 12.7,18.2 -0.7,4.2 -3.1,7.7 -6.4,10.1 -3.3,2.3 -7.4,3.4 -11.7,2.8 -4.3,-0.7 -7.9,-3 -10.3,-6.4 -2.3,-3.3 -3.4,-7.6 -2.7,-11.9 1.6,-8.8 9.9,-14.5 18.4,-12.8 z"
   id="path2288"
   style="fill:#00ea82;fill-opacity:1" />
	</g>
	<g
   id="g2294"
   style="fill:#00ea82;fill-opacity:1">
		<path
   fill="#FFFFFF"
   d="m 990.8,1507.1 c 4.2,1 7.6,3.7 9.8,7.1 2.1,3.4 3,7.6 2,11.7 -1.9,8.3 -10.1,13.7 -18.7,12 -8.5,-1.7 -14,-10.2 -12.1,-18.9 1,-4.3 3.6,-7.9 7.1,-10 3.4,-2.2 7.7,-3 11.9,-1.9 z"
   id="path2292"
   style="fill:#00ea82;fill-opacity:1" />
	</g>
	<g
   id="g2298"
   style="fill:#00ea82;fill-opacity:1">
		<path
   fill="#FFFFFF"
   d="m 1001.6,1467.9 c 4.2,1.3 7.4,4.1 9.3,7.6 2,3.5 2.5,7.7 1.4,11.8 -0.6,2 -1.5,3.9 -2.8,5.5 -1.2,1.6 -2.8,2.9 -4.5,3.9 -3.5,2 -7.7,2.7 -11.9,1.6 -4.2,-1.1 -7.6,-3.8 -9.6,-7.3 -1,-1.8 -1.7,-3.7 -2,-5.8 -0.3,-2.1 -0.1,-4.2 0.5,-6.4 1.2,-4.3 4.1,-7.7 7.6,-9.6 3.6,-2.1 7.9,-2.6 12,-1.3 z"
   id="path2296"
   style="fill:#00ea82;fill-opacity:1" />
	</g>
	<g
   id="g2302"
   style="fill:#00ea82;fill-opacity:1">
		<path
   fill="#FFFFFF"
   d="m 1014.9,1429.4 c 4.1,1.6 7.1,4.6 8.8,8.2 0.8,1.8 1.3,3.8 1.5,5.8 0.1,2 -0.1,4 -0.8,6 -1.4,4 -4.3,7.1 -7.9,8.8 -3.6,1.8 -7.9,2.2 -12,0.9 -4.1,-1.3 -7.3,-4.2 -9.1,-7.9 -1.8,-3.6 -2.2,-8.1 -0.7,-12.3 0.8,-2.1 1.9,-4 3.3,-5.5 1.4,-1.5 3.1,-2.8 5,-3.6 3.5,-1.7 7.8,-2 11.9,-0.4 z"
   id="path2300"
   style="fill:#00ea82;fill-opacity:1" />
	</g>
	<g
   id="g2306"
   style="fill:#00ea82;fill-opacity:1">
		<path
   fill="#FFFFFF"
   d="m 1031.2,1392.2 c 3.9,2 6.6,5.3 8,9 1.4,3.8 1.3,7.9 -0.4,11.7 -1.7,3.8 -4.8,6.6 -8.6,8.1 -3.7,1.5 -8,1.6 -12,0 -4,-1.6 -7,-4.8 -8.5,-8.6 -1.5,-3.8 -1.5,-8.3 0.4,-12.4 1.8,-4.1 5.2,-7.1 9,-8.5 3.9,-1.4 8.3,-1.2 12.1,0.7 z"
   id="path2304"
   style="fill:#00ea82;fill-opacity:1" />
	</g>
	<g
   id="g2310"
   style="fill:#00ea82;fill-opacity:1">
		<path
   fill="#FFFFFF"
   d="m 1051.6,1357 c 3.6,2.5 5.8,6.1 6.8,9.9 0.5,1.9 0.5,3.9 0.3,5.8 -0.3,1.9 -0.9,3.8 -2,5.6 -1,1.8 -2.4,3.3 -4,4.4 -1.6,1.2 -3.4,2 -5.3,2.6 -3.8,1 -8.1,0.7 -12,-1.3 -3.8,-2 -6.5,-5.5 -7.6,-9.4 -0.5,-2 -0.7,-4.1 -0.4,-6.2 0.3,-2.1 1,-4.2 2.2,-6.2 1.2,-2 2.7,-3.6 4.4,-4.9 1.7,-1.3 3.7,-2.1 5.7,-2.6 4,-0.9 8.4,-0.1 11.9,2.3 z"
   id="path2308"
   style="fill:#00ea82;fill-opacity:1" />
	</g>
	<g
   id="g2314"
   style="fill:#00ea82;fill-opacity:1">
		<path
   fill="#FFFFFF"
   d="m 1077.7,1325.9 c 1.5,1.6 2.6,3.4 3.3,5.3 0.8,1.9 1.2,3.9 1.2,5.8 0,1 0,1.9 -0.2,2.9 -0.1,1 -0.3,1.9 -0.6,2.8 -0.3,0.9 -0.7,1.8 -1.2,2.6 -0.5,0.8 -1,1.6 -1.7,2.4 -1.3,1.5 -2.9,2.7 -4.6,3.5 -1.7,0.8 -3.6,1.4 -5.6,1.6 -2,0.2 -4,0 -6,-0.5 -2,-0.5 -3.9,-1.4 -5.6,-2.7 -3.5,-2.6 -5.6,-6.4 -6,-10.5 -0.2,-2.1 0,-4.2 0.7,-6.3 0.7,-2.1 1.7,-4.1 3.3,-5.9 0.8,-0.9 1.6,-1.7 2.5,-2.4 0.9,-0.7 1.9,-1.3 2.9,-1.7 1,-0.5 2,-0.8 3,-1.1 1,-0.3 2.1,-0.4 3.2,-0.4 2.1,-0.1 4.1,0.3 6,1.1 2.2,0.7 3.9,1.9 5.4,3.5 z"
   id="path2312"
   style="fill:#00ea82;fill-opacity:1" />
	</g>
	<g
   id="g2318"
   style="fill:#00ea82;fill-opacity:1">
		<path
   fill="#FFFFFF"
   d="m 1111.6,1304 c 1.5,4.1 1.3,8.3 0.2,11.9 -0.3,0.9 -0.6,1.7 -1,2.6 -0.4,0.8 -0.9,1.6 -1.4,2.3 -1.1,1.4 -2.3,2.7 -3.9,3.5 -1.5,1 -3.3,1.5 -5.1,1.8 -1.8,0.3 -3.7,0.2 -5.6,-0.2 -3.7,-0.7 -7.6,-2.7 -10.3,-6.1 -2.8,-3.4 -3.8,-7.5 -3.1,-11.7 0.4,-2.1 1.3,-4.1 2.6,-6 1.3,-1.9 3.1,-3.5 5.3,-4.9 2.2,-1.2 4.5,-2.1 6.9,-2.4 1.2,-0.1 2.3,-0.2 3.4,-0.1 1.1,0.1 2.2,0.3 3.2,0.7 4.2,1.4 7.4,4.5 8.8,8.6 z"
   id="path2316"
   style="fill:#00ea82;fill-opacity:1" />
	</g>
	<g
   id="g2322"
   style="fill:#00ea82;fill-opacity:1">
		<path
   fill="#FFFFFF"
   d="m 1151.6,1301.4 c -0.5,2.1 -1.4,4 -2.5,5.7 -1.1,1.6 -2.4,3.1 -3.8,4.4 -0.7,0.6 -1.4,1.1 -2.2,1.6 -0.7,0.5 -1.5,0.9 -2.3,1.2 -1.5,0.6 -3.1,1.1 -4.8,1 -1.7,0.1 -3.3,-0.4 -4.8,-1 -0.8,-0.3 -1.5,-0.7 -2.3,-1.2 -0.7,-0.5 -1.5,-1 -2.2,-1.6 -1.4,-1.2 -2.7,-2.7 -3.8,-4.4 -1.1,-1.7 -2,-3.6 -2.5,-5.7 -0.5,-2.1 -0.5,-4.2 -0.1,-6.3 0.4,-2.1 1.4,-4 2.8,-5.6 0.7,-0.8 1.5,-1.6 2.4,-2.3 0.9,-0.7 1.9,-1.3 3,-1.8 2.2,-1.1 4.8,-1.5 7.4,-1.6 2.7,0.1 5.2,0.5 7.4,1.6 1.1,0.5 2.1,1.1 3,1.8 0.9,0.7 1.7,1.5 2.4,2.3 1.4,1.7 2.4,3.6 2.8,5.6 0.7,2 0.6,4.1 0.1,6.3 z"
   id="path2320"
   style="fill:#00ea82;fill-opacity:1" />
	</g>
	<g
   id="g2326"
   style="fill:#00ea82;fill-opacity:1">
		<path
   fill="#FFFFFF"
   d="m 1187.4,1319.9 c -2.7,3.3 -6.6,5.4 -10.3,6.1 -1.9,0.3 -3.8,0.5 -5.6,0.2 -1.8,-0.3 -3.5,-0.8 -5.1,-1.8 -1.6,-0.9 -2.8,-2.2 -3.9,-3.5 -0.5,-0.7 -1,-1.5 -1.4,-2.3 -0.4,-0.8 -0.7,-1.6 -1,-2.6 -1.1,-3.6 -1.3,-7.8 0.2,-11.9 1.5,-4.1 4.6,-7.2 8.7,-8.5 1,-0.3 2.1,-0.6 3.2,-0.7 1.1,-0.1 2.3,-0.1 3.4,0.1 2.4,0.2 4.6,1.1 6.9,2.4 2.1,1.3 4,3 5.3,4.9 1.3,1.9 2.2,3.9 2.6,6 0.8,4.1 -0.2,8.2 -3,11.6 z"
   id="path2324"
   style="fill:#00ea82;fill-opacity:1" />
	</g>
	<g
   id="g2330"
   style="fill:#00ea82;fill-opacity:1">
		<path
   fill="#FFFFFF"
   d="m 1215.1,1349.6 c -1.7,1.3 -3.7,2.2 -5.6,2.7 -2,0.5 -4,0.7 -6,0.5 -1.9,-0.2 -3.8,-0.7 -5.6,-1.6 -1.7,-0.8 -3.3,-2 -4.6,-3.5 -0.7,-0.7 -1.2,-1.5 -1.7,-2.4 -0.5,-0.8 -0.9,-1.7 -1.2,-2.6 -0.3,-0.9 -0.5,-1.8 -0.6,-2.8 -0.1,-0.9 -0.2,-1.9 -0.2,-2.9 0.1,-1.9 0.5,-3.9 1.2,-5.8 0.7,-1.9 1.8,-3.7 3.3,-5.3 1.5,-1.6 3.2,-2.8 5.1,-3.6 1.9,-0.8 3.9,-1.1 6,-1.1 1,0 2.1,0.2 3.2,0.4 1,0.3 2,0.6 3,1.1 1,0.5 2,1.1 2.9,1.7 0.9,0.7 1.7,1.5 2.5,2.4 1.6,1.8 2.7,3.8 3.3,5.9 0.7,2.1 0.9,4.2 0.7,6.3 -0.1,4.2 -2.2,8 -5.7,10.6 z"
   id="path2328"
   style="fill:#00ea82;fill-opacity:1" />
	</g>
	<g
   id="g2334"
   style="fill:#00ea82;fill-opacity:1">
		<path
   fill="#FFFFFF"
   d="m 1236.6,1384.1 c -3.8,2 -8.1,2.3 -12,1.3 -1.9,-0.5 -3.7,-1.4 -5.3,-2.6 -1.6,-1.2 -3,-2.6 -4,-4.4 -1.1,-1.8 -1.7,-3.6 -2,-5.6 -0.3,-1.9 -0.2,-3.9 0.3,-5.8 0.9,-3.9 3.2,-7.5 6.8,-9.9 3.6,-2.4 7.9,-3.2 11.9,-2.3 2,0.5 4,1.3 5.7,2.6 1.7,1.3 3.2,2.9 4.4,4.9 1.2,2 1.9,4.1 2.2,6.2 0.3,2.1 0.1,4.2 -0.4,6.2 -1.1,3.9 -3.8,7.3 -7.6,9.4 z"
   id="path2332"
   style="fill:#00ea82;fill-opacity:1" />
	</g>
	<g
   id="g2338"
   style="fill:#00ea82;fill-opacity:1">
		<path
   fill="#FFFFFF"
   d="m 1253.7,1420.9 c -4,1.6 -8.3,1.5 -12,0 -3.7,-1.4 -6.8,-4.3 -8.6,-8.1 -1.7,-3.8 -1.7,-8 -0.4,-11.7 1.4,-3.7 4.1,-7 8,-9 3.9,-1.9 8.2,-2.1 12.1,-0.7 3.8,1.4 7.2,4.4 9,8.5 1.9,4.1 1.8,8.6 0.4,12.4 -1.5,3.8 -4.4,7 -8.5,8.6 z"
   id="path2336"
   style="fill:#00ea82;fill-opacity:1" />
	</g>
	<g
   id="g2342"
   style="fill:#00ea82;fill-opacity:1">
		<path
   fill="#FFFFFF"
   d="m 1267.6,1459.1 c -4.1,1.3 -8.4,0.9 -12,-0.9 -3.6,-1.7 -6.5,-4.8 -7.9,-8.8 -0.7,-2 -1,-4 -0.8,-6 0.1,-2 0.6,-3.9 1.5,-5.8 1.7,-3.6 4.7,-6.7 8.8,-8.2 4.1,-1.6 8.4,-1.3 12.1,0.4 1.8,0.9 3.5,2.1 5,3.6 1.4,1.5 2.5,3.4 3.3,5.5 1.5,4.2 1.1,8.6 -0.7,12.3 -1.9,3.7 -5.1,6.6 -9.3,7.9 z"
   id="path2340"
   style="fill:#00ea82;fill-opacity:1" />
	</g>
	<g
   id="g2346"
   style="fill:#00ea82;fill-opacity:1">
		<path
   fill="#FFFFFF"
   d="m 1279,1498.2 c -4.2,1.1 -8.5,0.4 -11.9,-1.6 -1.7,-1 -3.3,-2.3 -4.5,-3.9 -1.3,-1.6 -2.2,-3.4 -2.8,-5.5 -1.1,-4.1 -0.6,-8.3 1.4,-11.8 1.9,-3.5 5.2,-6.3 9.3,-7.6 4.2,-1.3 8.5,-0.7 12,1.2 3.5,2 6.4,5.3 7.6,9.6 0.6,2.1 0.7,4.3 0.5,6.4 -0.3,2.1 -0.9,4 -2,5.8 -2.1,3.6 -5.4,6.3 -9.6,7.4 z"
   id="path2344"
   style="fill:#00ea82;fill-opacity:1" />
	</g>
	<g
   id="g2350"
   style="fill:#00ea82;fill-opacity:1">
		<path
   fill="#FFFFFF"
   d="m 1288.1,1537.8 c -8.5,1.7 -16.8,-3.7 -18.7,-12 -0.9,-4.2 -0.1,-8.3 2,-11.7 2.1,-3.4 5.5,-6 9.8,-7.1 4.3,-1.1 8.5,-0.3 11.9,1.9 3.5,2.1 6.1,5.7 7.1,10 1.9,8.8 -3.6,17.2 -12.1,18.9 z"
   id="path2348"
   style="fill:#00ea82;fill-opacity:1" />
	</g>
	<g
   id="g2354"
   style="fill:#00ea82;fill-opacity:1">
		<path
   fill="#FFFFFF"
   d="m 1295.3,1577.9 c -4.3,0.7 -8.4,-0.4 -11.7,-2.8 -3.3,-2.3 -5.6,-5.9 -6.4,-10.1 -1.5,-8.4 4.1,-16.5 12.7,-18.2 8.5,-1.7 16.8,4 18.4,12.8 0.8,4.4 -0.3,8.6 -2.7,11.9 -2.4,3.3 -6,5.7 -10.3,6.4 z"
   id="path2352"
   style="fill:#00ea82;fill-opacity:1" />
	</g>
	<g
   id="g2358"
   style="fill:#00ea82;fill-opacity:1">
		<path
   fill="#FFFFFF"
   d="m 1300.8,1618.2 c -8.6,1 -16.4,-5.1 -17.6,-13.6 -1.1,-8.5 4.8,-16.4 13.4,-17.7 8.6,-1.3 16.6,4.8 17.8,13.6 1.3,8.7 -4.9,16.7 -13.6,17.7 z"
   id="path2356"
   style="fill:#00ea82;fill-opacity:1" />
	</g>
	<g
   id="g2362"
   style="fill:#00ea82;fill-opacity:1">
		<path
   fill="#FFFFFF"
   d="m 1304.8,1658.6 c -8.7,0.7 -16.2,-5.7 -17,-14.3 -0.4,-4.3 1,-8.3 3.5,-11.4 2.5,-3.1 6.3,-5.3 10.6,-5.7 4.3,-0.5 8.4,0.9 11.6,3.4 3.1,2.6 5.3,6.4 5.7,10.8 0.7,8.9 -5.8,16.6 -14.4,17.2 z"
   id="path2360"
   style="fill:#00ea82;fill-opacity:1" />
	</g>
	<g
   id="g2366"
   style="fill:#00ea82;fill-opacity:1">
		<path
   fill="#FFFFFF"
   d="m 1307.2,1699.2 c -8.7,0.3 -16,-6.3 -16.5,-14.9 -0.5,-8.6 6.1,-16 14.7,-16.6 8.7,-0.6 16.2,6 16.7,14.9 0.6,8.8 -6.2,16.3 -14.9,16.6 z"
   id="path2364"
   style="fill:#00ea82;fill-opacity:1" />
	</g>
	<g
   id="g2370"
   style="fill:#00ea82;fill-opacity:1">
		<path
   fill="#FFFFFF"
   d="m 1308.2,1739.9 c -8.7,0 -15.8,-6.9 -16,-15.4 -0.2,-8.6 6.6,-15.8 15.3,-16.1 8.7,-0.3 16,6.6 16.2,15.4 0.2,8.8 -6.8,16 -15.5,16.1 z"
   id="path2368"
   style="fill:#00ea82;fill-opacity:1" />
	</g>
</g>
<g
   id="g2482"
   style="fill:#00ea82;fill-opacity:1"
   transform="matrix(3.9841834,0,0,4.0962288,-3382.143,-5256.9577)">
	<g
   id="g2376"
   style="fill:#00ea82;fill-opacity:1">
		<path
   fill="#FFFFFF"
   d="m 1014.4,1707.6 c 5.8,0.2 10.4,4.9 10.2,10.6 -0.1,5.6 -4.8,10.2 -10.6,10.1 -5.8,0 -10.5,-4.8 -10.4,-10.6 0.1,-5.7 5,-10.3 10.8,-10.1 z"
   id="path2374"
   style="fill:#00ea82;fill-opacity:1" />
	</g>
	<g
   id="g2380"
   style="fill:#00ea82;fill-opacity:1">
		<path
   fill="#FFFFFF"
   d="m 1015.7,1681 c 5.8,0.4 10.2,5.3 9.9,10.9 -0.3,5.6 -5.2,10 -11,9.8 -5.8,-0.2 -10.3,-5.1 -10,-10.9 0.3,-5.8 5.3,-10.2 11.1,-9.8 z"
   id="path2378"
   style="fill:#00ea82;fill-opacity:1" />
	</g>
	<g
   id="g2384"
   style="fill:#00ea82;fill-opacity:1">
		<path
   fill="#FFFFFF"
   d="m 1017.8,1654.4 c 5.8,0.6 10,5.6 9.5,11.2 -0.5,5.6 -5.5,9.8 -11.3,9.4 -5.8,-0.4 -10.2,-5.4 -9.6,-11.2 0.5,-5.8 5.7,-10 11.4,-9.4 z"
   id="path2382"
   style="fill:#00ea82;fill-opacity:1" />
	</g>
	<g
   id="g2388"
   style="fill:#00ea82;fill-opacity:1">
		<path
   fill="#FFFFFF"
   d="m 1020.9,1627.8 c 5.7,0.8 9.8,6 9.1,11.5 -0.7,5.6 -5.8,9.6 -11.6,9 -5.8,-0.6 -9.9,-5.8 -9.2,-11.5 0.7,-5.7 6,-9.8 11.7,-9 z"
   id="path2386"
   style="fill:#00ea82;fill-opacity:1" />
	</g>
	<g
   id="g2392"
   style="fill:#00ea82;fill-opacity:1">
		<path
   fill="#FFFFFF"
   d="m 1025,1601.4 c 5.7,1 9.5,6.3 8.7,11.9 -0.9,5.5 -6.2,9.4 -11.9,8.6 -5.7,-0.8 -9.7,-6.1 -8.8,-11.9 0.9,-5.8 6.3,-9.6 12,-8.6 z"
   id="path2390"
   style="fill:#00ea82;fill-opacity:1" />
	</g>
	<g
   id="g2396"
   style="fill:#00ea82;fill-opacity:1">
		<path
   fill="#FFFFFF"
   d="m 1030.2,1575.3 c 5.7,1.3 9.3,6.7 8.1,12.2 -1.1,5.5 -6.5,9.1 -12.3,8.1 -5.7,-1 -9.5,-6.5 -8.3,-12.2 1.3,-5.8 6.9,-9.4 12.5,-8.1 z"
   id="path2394"
   style="fill:#00ea82;fill-opacity:1" />
	</g>
	<g
   id="g2400"
   style="fill:#00ea82;fill-opacity:1">
		<path
   fill="#FFFFFF"
   d="m 1036.6,1549.3 c 5.6,1.6 8.9,7.2 7.6,12.6 -1.4,5.4 -7,8.8 -12.6,7.5 -5.6,-1.3 -9.2,-7 -7.7,-12.6 1.3,-5.7 7.1,-9 12.7,-7.5 z"
   id="path2398"
   style="fill:#00ea82;fill-opacity:1" />
	</g>
	<g
   id="g2404"
   style="fill:#00ea82;fill-opacity:1">
		<path
   fill="#FFFFFF"
   d="m 1044.4,1523.8 c 5.5,1.9 8.5,7.7 6.8,13 -1.7,5.3 -7.4,8.4 -13,6.8 -5.6,-1.6 -8.8,-7.4 -7.1,-13 1.8,-5.7 7.8,-8.7 13.3,-6.8 z"
   id="path2402"
   style="fill:#00ea82;fill-opacity:1" />
	</g>
	<g
   id="g2408"
   style="fill:#00ea82;fill-opacity:1">
		<path
   fill="#FFFFFF"
   d="m 1053.8,1498.8 c 5.3,2.3 7.9,8.2 5.9,13.4 -2,5.2 -7.9,7.8 -13.4,5.9 -5.5,-1.9 -8.3,-8 -6.2,-13.5 2.2,-5.5 8.4,-8.1 13.7,-5.8 z"
   id="path2406"
   style="fill:#00ea82;fill-opacity:1" />
	</g>
	<g
   id="g2412"
   style="fill:#00ea82;fill-opacity:1">
		<path
   fill="#FFFFFF"
   d="m 1065.3,1474.7 c 5.1,2.8 7.1,8.9 4.7,13.8 -2.4,4.9 -8.5,7.1 -13.8,4.8 -5.3,-2.3 -7.7,-8.6 -5.1,-14 2.7,-5.4 9.1,-7.4 14.2,-4.6 z"
   id="path2410"
   style="fill:#00ea82;fill-opacity:1" />
	</g>
	<g
   id="g2416"
   style="fill:#00ea82;fill-opacity:1">
		<path
   fill="#FFFFFF"
   d="m 1079.4,1452.1 c 2.3,1.7 3.8,4.2 4.3,6.7 0.5,2.6 0.1,5.2 -1.3,7.5 -0.7,1.1 -1.7,2.1 -2.7,2.8 -1.1,0.7 -2.3,1.2 -3.6,1.5 -2.5,0.6 -5.4,0.3 -7.9,-1.2 -2.5,-1.5 -4.2,-3.8 -4.9,-6.4 -0.3,-1.3 -0.4,-2.7 -0.2,-4.1 0.2,-1.4 0.7,-2.8 1.6,-4 1.6,-2.5 4.2,-4.2 6.8,-4.7 2.8,-0.5 5.6,0.1 7.9,1.9 z"
   id="path2414"
   style="fill:#00ea82;fill-opacity:1" />
	</g>
	<g
   id="g2420"
   style="fill:#00ea82;fill-opacity:1">
		<path
   fill="#FFFFFF"
   d="m 1097.2,1432.2 c 1.9,2.2 2.8,4.9 2.8,7.5 0,1.3 -0.2,2.5 -0.6,3.7 -0.2,0.6 -0.5,1.1 -0.8,1.7 -0.3,0.5 -0.7,1.1 -1.1,1.5 -0.9,0.9 -1.9,1.7 -3.1,2.2 -1.2,0.5 -2.4,0.8 -3.7,0.9 -2.6,0.2 -5.4,-0.6 -7.6,-2.4 -2.3,-1.8 -3.6,-4.3 -3.8,-7.1 -0.1,-1.4 0.1,-2.8 0.6,-4.1 0.5,-1.4 1.2,-2.7 2.3,-3.8 0.5,-0.6 1.1,-1.1 1.7,-1.5 0.6,-0.4 1.3,-0.8 1.9,-1.1 1.3,-0.6 2.7,-0.9 4.1,-0.8 2.8,-0.1 5.4,1.1 7.3,3.3 z"
   id="path2418"
   style="fill:#00ea82;fill-opacity:1" />
	</g>
	<g
   id="g2424"
   style="fill:#00ea82;fill-opacity:1">
		<path
   fill="#FFFFFF"
   d="m 1120,1418.5 c 0.9,2.8 0.7,5.6 -0.1,7.9 -0.4,1.2 -1,2.3 -1.7,3.2 -0.7,1 -1.6,1.7 -2.6,2.3 -1,0.6 -2.2,0.9 -3.4,1 -0.6,0.1 -1.2,0.1 -1.8,0 -0.6,0 -1.2,-0.1 -1.8,-0.3 -1.2,-0.3 -2.5,-0.8 -3.6,-1.5 -1.1,-0.7 -2.2,-1.6 -3.1,-2.8 -0.9,-1.2 -1.5,-2.4 -1.8,-3.8 -0.3,-1.3 -0.3,-2.7 0,-4.1 0.1,-0.7 0.4,-1.4 0.7,-2 0.3,-0.6 0.7,-1.3 1.1,-1.9 0.9,-1.2 2.1,-2.3 3.6,-3.1 1.4,-0.8 3,-1.2 4.5,-1.4 1.5,-0.1 3,0.1 4.4,0.5 2.6,1.2 4.6,3.3 5.6,6 z"
   id="path2422"
   style="fill:#00ea82;fill-opacity:1" />
	</g>
	<g
   id="g2428"
   style="fill:#00ea82;fill-opacity:1">
		<path
   fill="#FFFFFF"
   d="m 1146.3,1416.9 c -0.3,1.4 -0.9,2.7 -1.6,3.8 -0.7,1.1 -1.6,2.2 -2.5,3 -1.9,1.6 -3.9,2.6 -6.2,2.6 -2.2,0.1 -4.3,-1 -6.2,-2.6 -0.9,-0.8 -1.8,-1.8 -2.5,-3 -0.7,-1.1 -1.3,-2.4 -1.6,-3.8 -0.3,-1.4 -0.3,-2.8 0,-4.2 0.3,-1.3 0.9,-2.6 1.9,-3.7 1.8,-2.2 4.9,-3.7 8.4,-3.7 3.5,0.1 6.6,1.5 8.4,3.7 0.9,1.1 1.6,2.4 1.9,3.7 0.3,1.4 0.3,2.8 0,4.2 z"
   id="path2426"
   style="fill:#00ea82;fill-opacity:1" />
	</g>
	<g
   id="g2432"
   style="fill:#00ea82;fill-opacity:1">
		<path
   fill="#FFFFFF"
   d="m 1170.1,1428.4 c -0.9,1.2 -1.9,2.1 -3.1,2.8 -1.2,0.7 -2.4,1.2 -3.6,1.5 -0.6,0.1 -1.2,0.2 -1.8,0.3 -0.6,0.1 -1.2,0.1 -1.8,0 -1.2,-0.2 -2.3,-0.5 -3.4,-1 -1,-0.6 -1.9,-1.3 -2.6,-2.3 -0.7,-0.9 -1.3,-2 -1.7,-3.2 -0.8,-2.3 -1,-5.2 -0.1,-7.9 0.9,-2.7 2.9,-4.8 5.6,-5.8 1.3,-0.5 2.8,-0.7 4.4,-0.5 1.5,0.2 3.1,0.6 4.5,1.4 1.4,0.8 2.7,1.9 3.6,3.1 0.5,0.6 0.8,1.2 1.1,1.9 0.3,0.7 0.5,1.3 0.7,2 0.3,1.4 0.3,2.8 0,4.1 -0.3,1.2 -0.9,2.5 -1.8,3.6 z"
   id="path2430"
   style="fill:#00ea82;fill-opacity:1" />
	</g>
	<g
   id="g2436"
   style="fill:#00ea82;fill-opacity:1">
		<path
   fill="#FFFFFF"
   d="m 1189,1447.3 c -2.3,1.8 -5.1,2.6 -7.6,2.4 -1.3,-0.1 -2.6,-0.4 -3.7,-0.9 -1.1,-0.5 -2.2,-1.2 -3.1,-2.2 -0.4,-0.5 -0.8,-1 -1.1,-1.5 -0.3,-0.5 -0.6,-1.1 -0.8,-1.7 -0.4,-1.2 -0.6,-2.4 -0.6,-3.7 0,-2.6 0.9,-5.3 2.8,-7.5 1.9,-2.2 4.5,-3.4 7.3,-3.4 1.4,0 2.8,0.3 4.1,0.8 0.7,0.3 1.3,0.6 1.9,1.1 0.6,0.4 1.2,0.9 1.7,1.5 1.1,1.1 1.8,2.4 2.3,3.8 0.5,1.4 0.7,2.8 0.6,4.1 -0.3,2.8 -1.6,5.4 -3.8,7.2 z"
   id="path2434"
   style="fill:#00ea82;fill-opacity:1" />
	</g>
	<g
   id="g2440"
   style="fill:#00ea82;fill-opacity:1">
		<path
   fill="#FFFFFF"
   d="m 1203.8,1469.4 c -2.5,1.4 -5.4,1.8 -7.9,1.2 -1.3,-0.3 -2.5,-0.8 -3.6,-1.5 -1.1,-0.7 -2,-1.7 -2.7,-2.8 -1.4,-2.3 -1.9,-4.9 -1.3,-7.5 0.5,-2.5 2,-5 4.3,-6.7 2.3,-1.7 5.2,-2.3 7.8,-1.8 2.7,0.5 5.2,2.1 6.8,4.7 0.8,1.3 1.3,2.6 1.6,4 0.2,1.4 0.2,2.8 -0.2,4.1 -0.6,2.6 -2.3,4.9 -4.8,6.3 z"
   id="path2438"
   style="fill:#00ea82;fill-opacity:1" />
	</g>
	<g
   id="g2444"
   style="fill:#00ea82;fill-opacity:1">
		<path
   fill="#FFFFFF"
   d="m 1215.8,1493.3 c -5.3,2.3 -11.4,0.1 -13.8,-4.8 -2.4,-4.9 -0.4,-11 4.7,-13.8 5.1,-2.8 11.5,-0.8 14.2,4.6 2.6,5.4 0.2,11.7 -5.1,14 z"
   id="path2442"
   style="fill:#00ea82;fill-opacity:1" />
	</g>
	<g
   id="g2448"
   style="fill:#00ea82;fill-opacity:1">
		<path
   fill="#FFFFFF"
   d="m 1225.6,1518.1 c -5.5,1.9 -11.4,-0.8 -13.4,-5.9 -2,-5.1 0.6,-11.1 5.9,-13.4 5.3,-2.3 11.5,0.3 13.7,5.8 2.2,5.5 -0.7,11.6 -6.2,13.5 z"
   id="path2446"
   style="fill:#00ea82;fill-opacity:1" />
	</g>
	<g
   id="g2452"
   style="fill:#00ea82;fill-opacity:1">
		<path
   fill="#FFFFFF"
   d="m 1233.8,1543.5 c -5.6,1.6 -11.3,-1.5 -13,-6.8 -1.6,-5.3 1.4,-11.1 6.8,-13 5.5,-1.9 11.5,1.1 13.2,6.7 1.8,5.7 -1.5,11.6 -7,13.1 z"
   id="path2450"
   style="fill:#00ea82;fill-opacity:1" />
	</g>
	<g
   id="g2456"
   style="fill:#00ea82;fill-opacity:1">
		<path
   fill="#FFFFFF"
   d="m 1240.4,1569.4 c -5.7,1.3 -11.2,-2.1 -12.6,-7.5 -1.4,-5.4 2,-11 7.6,-12.6 5.6,-1.6 11.4,1.8 12.8,7.4 1.4,5.7 -2.1,11.4 -7.8,12.7 z"
   id="path2454"
   style="fill:#00ea82;fill-opacity:1" />
	</g>
	<g
   id="g2460"
   style="fill:#00ea82;fill-opacity:1">
		<path
   fill="#FFFFFF"
   d="m 1245.9,1595.5 c -5.7,1 -11.1,-2.6 -12.3,-8.1 -1.1,-5.5 2.5,-10.9 8.1,-12.2 5.7,-1.3 11.3,2.3 12.4,8 1.3,5.8 -2.5,11.3 -8.2,12.3 z"
   id="path2458"
   style="fill:#00ea82;fill-opacity:1" />
	</g>
	<g
   id="g2464"
   style="fill:#00ea82;fill-opacity:1">
		<path
   fill="#FFFFFF"
   d="m 1250.2,1621.9 c -5.7,0.8 -11,-3 -11.9,-8.6 -0.9,-5.5 3,-10.8 8.7,-11.9 5.7,-1 11.2,2.8 12.1,8.5 0.9,5.8 -3.1,11.2 -8.9,12 z"
   id="path2462"
   style="fill:#00ea82;fill-opacity:1" />
	</g>
	<g
   id="g2468"
   style="fill:#00ea82;fill-opacity:1">
		<path
   fill="#FFFFFF"
   d="m 1253.6,1648.4 c -5.8,0.6 -10.9,-3.4 -11.6,-9 -0.7,-5.6 3.4,-10.7 9.1,-11.5 5.7,-0.8 11,3.2 11.7,9 0.7,5.7 -3.5,10.9 -9.2,11.5 z"
   id="path2466"
   style="fill:#00ea82;fill-opacity:1" />
	</g>
	<g
   id="g2472"
   style="fill:#00ea82;fill-opacity:1">
		<path
   fill="#FFFFFF"
   d="m 1255.9,1675 c -5.8,0.4 -10.8,-3.8 -11.3,-9.4 -0.5,-5.6 3.7,-10.6 9.5,-11.2 5.8,-0.6 10.9,3.6 11.4,9.4 0.6,5.8 -3.8,10.8 -9.6,11.2 z"
   id="path2470"
   style="fill:#00ea82;fill-opacity:1" />
	</g>
	<g
   id="g2476"
   style="fill:#00ea82;fill-opacity:1">
		<path
   fill="#FFFFFF"
   d="m 1257.4,1701.6 c -5.8,0.2 -10.7,-4.2 -11,-9.8 -0.3,-5.6 4.1,-10.5 9.9,-10.9 5.8,-0.4 10.8,4 11.1,9.8 0.3,5.9 -4.2,10.7 -10,10.9 z"
   id="path2474"
   style="fill:#00ea82;fill-opacity:1" />
	</g>
	<g
   id="g2480"
   style="fill:#00ea82;fill-opacity:1">
		<path
   fill="#FFFFFF"
   d="m 1258,1728.3 c -5.8,0 -10.5,-4.5 -10.6,-10.1 -0.1,-5.6 4.4,-10.4 10.2,-10.6 5.8,-0.2 10.6,4.3 10.8,10.1 0.1,5.9 -4.6,10.6 -10.4,10.6 z"
   id="path2478"
   style="fill:#00ea82;fill-opacity:1" />
	</g>
</g>
<g
   id="g2632"
   style="fill:#00ea82;fill-opacity:1"
   transform="matrix(3.9841834,0,0,4.0962288,-3382.143,-5256.9577)">
	<g
   id="g2486"
   style="fill:#00ea82;fill-opacity:1">
		<path
   fill="#FFFFFF"
   d="m 1052.5,1725.9 c 2.9,0.1 5.2,2.4 5.2,5.3 -0.1,2.8 -2.4,5.1 -5.3,5.1 -2.9,0 -5.3,-2.4 -5.2,-5.3 0,-2.8 2.4,-5.1 5.3,-5.1 z"
   id="path2484"
   style="fill:#00ea82;fill-opacity:1" />
	</g>
	<g
   id="g2490"
   style="fill:#00ea82;fill-opacity:1">
		<path
   fill="#FFFFFF"
   d="m 1052.9,1712.6 c 2.9,0.1 5.1,2.6 5,5.4 -0.1,2.8 -2.5,5.1 -5.4,5 -2.9,-0.1 -5.2,-2.5 -5.1,-5.4 0.2,-3 2.6,-5.2 5.5,-5 z"
   id="path2488"
   style="fill:#00ea82;fill-opacity:1" />
	</g>
	<g
   id="g2494"
   style="fill:#00ea82;fill-opacity:1">
		<path
   fill="#FFFFFF"
   d="m 1053.7,1699.2 c 2.9,0.2 5.1,2.7 4.9,5.5 -0.2,2.8 -2.6,5 -5.5,4.9 -2.9,-0.1 -5.1,-2.6 -4.9,-5.5 0.1,-3 2.6,-5.1 5.5,-4.9 z"
   id="path2492"
   style="fill:#00ea82;fill-opacity:1" />
	</g>
	<g
   id="g2498"
   style="fill:#00ea82;fill-opacity:1">
		<path
   fill="#FFFFFF"
   d="m 1054.8,1685.8 c 2.9,0.3 5,2.8 4.8,5.6 -0.2,2.8 -2.8,4.9 -5.7,4.7 -2.9,-0.2 -5.1,-2.7 -4.8,-5.6 0.3,-2.8 2.9,-4.9 5.7,-4.7 z"
   id="path2496"
   style="fill:#00ea82;fill-opacity:1" />
	</g>
	<g
   id="g2502"
   style="fill:#00ea82;fill-opacity:1">
		<path
   fill="#FFFFFF"
   d="m 1056.3,1672.5 c 2.9,0.4 4.9,2.9 4.6,5.7 -0.3,2.8 -2.9,4.9 -5.8,4.6 -2.9,-0.3 -5,-2.9 -4.7,-5.7 0.4,-2.9 3,-4.9 5.9,-4.6 z"
   id="path2500"
   style="fill:#00ea82;fill-opacity:1" />
	</g>
	<g
   id="g2506"
   style="fill:#00ea82;fill-opacity:1">
		<path
   fill="#FFFFFF"
   d="m 1058.1,1659.3 c 2.9,0.4 4.9,3.1 4.5,5.9 -0.4,2.8 -3,4.8 -5.9,4.4 -2.9,-0.4 -4.9,-3 -4.5,-5.9 0.4,-2.9 3,-4.9 5.9,-4.4 z"
   id="path2504"
   style="fill:#00ea82;fill-opacity:1" />
	</g>
	<g
   id="g2510"
   style="fill:#00ea82;fill-opacity:1">
		<path
   fill="#FFFFFF"
   d="m 1060.3,1646.1 c 2.9,0.5 4.7,3.2 4.3,6 -0.5,2.8 -3.1,4.7 -6,4.2 -2.9,-0.4 -4.8,-3.1 -4.3,-6 0.4,-2.9 3.2,-4.8 6,-4.2 z"
   id="path2508"
   style="fill:#00ea82;fill-opacity:1" />
	</g>
	<g
   id="g2514"
   style="fill:#00ea82;fill-opacity:1">
		<path
   fill="#FFFFFF"
   d="m 1062.9,1632.9 c 2.8,0.6 4.6,3.3 4.1,6.1 -0.6,2.8 -3.3,4.6 -6.1,4.1 -2.8,-0.5 -4.7,-3.3 -4.2,-6.1 0.6,-2.9 3.4,-4.7 6.2,-4.1 z"
   id="path2512"
   style="fill:#00ea82;fill-opacity:1" />
	</g>
	<g
   id="g2518"
   style="fill:#00ea82;fill-opacity:1">
		<path
   fill="#FFFFFF"
   d="m 1065.9,1619.9 c 2.8,0.7 4.5,3.5 3.9,6.2 -0.7,2.7 -3.4,4.5 -6.3,3.9 -2.8,-0.6 -4.6,-3.4 -3.9,-6.3 0.7,-2.8 3.5,-4.5 6.3,-3.8 z"
   id="path2516"
   style="fill:#00ea82;fill-opacity:1" />
	</g>
	<g
   id="g2522"
   style="fill:#00ea82;fill-opacity:1">
		<path
   fill="#FFFFFF"
   d="m 1069.4,1606.9 c 2.8,0.8 4.4,3.7 3.6,6.4 -0.7,2.7 -3.6,4.3 -6.4,3.6 -2.8,-0.7 -4.5,-3.6 -3.7,-6.4 0.8,-2.8 3.8,-4.4 6.5,-3.6 z"
   id="path2520"
   style="fill:#00ea82;fill-opacity:1" />
	</g>
	<g
   id="g2526"
   style="fill:#00ea82;fill-opacity:1">
		<path
   fill="#FFFFFF"
   d="m 1073.5,1594.2 c 2.7,0.9 4.2,3.9 3.4,6.5 -0.9,2.7 -3.8,4.2 -6.5,3.3 -2.8,-0.8 -4.3,-3.8 -3.4,-6.6 0.7,-2.7 3.7,-4.2 6.5,-3.2 z"
   id="path2524"
   style="fill:#00ea82;fill-opacity:1" />
	</g>
	<g
   id="g2530"
   style="fill:#00ea82;fill-opacity:1">
		<path
   fill="#FFFFFF"
   d="m 1078.1,1581.6 c 2.7,1.1 4,4.1 3,6.7 -1,2.6 -3.9,4 -6.7,3 -2.7,-1 -4.2,-4 -3.1,-6.7 1,-2.7 4.1,-4.1 6.8,-3 z"
   id="path2528"
   style="fill:#00ea82;fill-opacity:1" />
	</g>
	<g
   id="g2534"
   style="fill:#00ea82;fill-opacity:1">
		<path
   fill="#FFFFFF"
   d="m 1083.5,1569.3 c 2.6,1.3 3.8,4.3 2.6,6.8 -1.1,2.5 -4.2,3.7 -6.8,2.6 -2.7,-1.1 -3.9,-4.2 -2.8,-6.9 1.2,-2.6 4.3,-3.7 7,-2.5 z"
   id="path2532"
   style="fill:#00ea82;fill-opacity:1" />
	</g>
	<g
   id="g2538"
   style="fill:#00ea82;fill-opacity:1">
		<path
   fill="#FFFFFF"
   d="m 1089.6,1557.5 c 2.5,1.5 3.4,4.6 2.1,7 -1.3,2.4 -4.4,3.4 -7,2.2 -2.6,-1.3 -3.7,-4.5 -2.3,-7.1 1.5,-2.7 4.7,-3.6 7.2,-2.1 z"
   id="path2536"
   style="fill:#00ea82;fill-opacity:1" />
	</g>
	<g
   id="g2542"
   style="fill:#00ea82;fill-opacity:1">
		<path
   fill="#FFFFFF"
   d="m 1096.9,1546.2 c 2.3,1.7 2.9,4.9 1.4,7.2 -1.5,2.3 -4.6,3 -7.2,1.5 -2.5,-1.5 -3.3,-4.8 -1.6,-7.3 1.7,-2.5 5,-3.1 7.4,-1.4 z"
   id="path2540"
   style="fill:#00ea82;fill-opacity:1" />
	</g>
	<g
   id="g2546"
   style="fill:#00ea82;fill-opacity:1">
		<path
   fill="#FFFFFF"
   d="m 1105.4,1535.9 c 1,1 1.6,2.3 1.7,3.6 0.1,1.3 -0.3,2.6 -1.2,3.6 -0.9,1 -2.1,1.6 -3.4,1.7 -1.3,0.1 -2.7,-0.2 -3.8,-1.1 -1.2,-0.9 -1.8,-2.1 -2,-3.5 -0.1,-1.3 0.3,-2.8 1.3,-3.9 1,-1.2 2.4,-1.8 3.7,-1.8 1.4,-0.1 2.7,0.4 3.7,1.4 z"
   id="path2544"
   style="fill:#00ea82;fill-opacity:1" />
	</g>
	<g
   id="g2550"
   style="fill:#00ea82;fill-opacity:1">
		<path
   fill="#FFFFFF"
   d="m 1115.7,1527.4 c 0.8,1.2 1,2.6 0.9,3.9 -0.1,0.6 -0.3,1.3 -0.6,1.8 -0.3,0.6 -0.7,1.1 -1.2,1.5 -2,1.6 -5.2,1.4 -7.2,-0.7 -2,-2.1 -1.8,-5.5 0.6,-7.5 0.6,-0.5 1.3,-0.8 2,-1 0.7,-0.2 1.4,-0.2 2.1,-0.1 1.4,0.1 2.6,0.9 3.4,2.1 z"
   id="path2548"
   style="fill:#00ea82;fill-opacity:1" />
	</g>
	<g
   id="g2554"
   style="fill:#00ea82;fill-opacity:1">
		<path
   fill="#FFFFFF"
   d="m 1127.9,1521.9 c 0.3,1.4 0.1,2.8 -0.4,4 -0.5,1.1 -1.4,2.1 -2.5,2.5 -0.6,0.3 -1.2,0.3 -1.8,0.3 -0.6,0 -1.2,-0.1 -1.8,-0.3 -1.2,-0.5 -2.3,-1.3 -3,-2.6 -0.7,-1.3 -0.9,-2.7 -0.4,-4 0.2,-0.7 0.6,-1.3 1.1,-1.8 0.5,-0.5 1.2,-1 1.9,-1.3 1.5,-0.6 3.1,-0.5 4.4,0.1 1.2,0.6 2.1,1.7 2.5,3.1 z"
   id="path2552"
   style="fill:#00ea82;fill-opacity:1" />
	</g>
	<g
   id="g2558"
   style="fill:#00ea82;fill-opacity:1">
		<path
   fill="#FFFFFF"
   d="m 1141.2,1521.3 c -0.2,1.4 -1,2.6 -1.9,3.5 -0.5,0.4 -1,0.8 -1.5,1 -0.5,0.3 -1.1,0.4 -1.7,0.4 -0.6,0 -1.2,-0.1 -1.7,-0.4 -0.5,-0.2 -1.1,-0.5 -1.5,-1 -0.9,-0.9 -1.7,-2 -1.9,-3.5 -0.2,-1.4 0.1,-2.9 1.1,-3.9 0.5,-0.5 1.1,-1 1.8,-1.3 0.7,-0.3 1.5,-0.5 2.3,-0.5 0.8,0 1.6,0.2 2.3,0.5 0.7,0.3 1.3,0.8 1.8,1.3 0.7,1.1 1.1,2.5 0.9,3.9 z"
   id="path2556"
   style="fill:#00ea82;fill-opacity:1" />
	</g>
	<g
   id="g2562"
   style="fill:#00ea82;fill-opacity:1">
		<path
   fill="#FFFFFF"
   d="m 1153.7,1525.8 c -0.7,1.3 -1.8,2.1 -3,2.6 -0.6,0.2 -1.2,0.4 -1.8,0.3 -0.6,0 -1.2,-0.1 -1.8,-0.3 -1.1,-0.4 -2,-1.4 -2.5,-2.5 -0.5,-1.2 -0.8,-2.6 -0.4,-4 0.3,-1.4 1.3,-2.6 2.5,-3.2 1.3,-0.6 2.9,-0.7 4.4,-0.1 0.7,0.3 1.4,0.8 1.9,1.3 0.5,0.5 0.9,1.2 1.1,1.8 0.5,1.4 0.3,2.9 -0.4,4.1 z"
   id="path2560"
   style="fill:#00ea82;fill-opacity:1" />
	</g>
	<g
   id="g2566"
   style="fill:#00ea82;fill-opacity:1">
		<path
   fill="#FFFFFF"
   d="m 1164.4,1533.8 c -2,2.1 -5.2,2.3 -7.2,0.7 -0.5,-0.4 -0.9,-0.9 -1.2,-1.5 -0.3,-0.5 -0.5,-1.1 -0.6,-1.8 -0.2,-1.3 0.1,-2.7 0.9,-3.9 0.8,-1.2 2,-2 3.4,-2.2 0.7,-0.1 1.4,-0.1 2.1,0.1 0.7,0.2 1.4,0.5 2,1 2.4,2.1 2.6,5.5 0.6,7.6 z"
   id="path2564"
   style="fill:#00ea82;fill-opacity:1" />
	</g>
	<g
   id="g2570"
   style="fill:#00ea82;fill-opacity:1">
		<path
   fill="#FFFFFF"
   d="m 1173.3,1543.8 c -1.2,0.9 -2.5,1.2 -3.8,1.1 -1.3,-0.1 -2.5,-0.7 -3.4,-1.7 -0.9,-1 -1.2,-2.3 -1.2,-3.6 0.1,-1.3 0.6,-2.6 1.7,-3.6 1,-1 2.4,-1.5 3.8,-1.4 1.4,0.1 2.7,0.7 3.7,1.8 1,1.2 1.4,2.6 1.3,3.9 -0.2,1.4 -0.9,2.6 -2.1,3.5 z"
   id="path2568"
   style="fill:#00ea82;fill-opacity:1" />
	</g>
	<g
   id="g2574"
   style="fill:#00ea82;fill-opacity:1">
		<path
   fill="#FFFFFF"
   d="m 1180.8,1554.9 c -2.5,1.5 -5.6,0.8 -7.2,-1.5 -1.5,-2.3 -0.9,-5.4 1.4,-7.2 2.3,-1.7 5.7,-1.1 7.3,1.4 1.8,2.5 1,5.8 -1.5,7.3 z"
   id="path2572"
   style="fill:#00ea82;fill-opacity:1" />
	</g>
	<g
   id="g2578"
   style="fill:#00ea82;fill-opacity:1">
		<path
   fill="#FFFFFF"
   d="m 1187.2,1566.6 c -2.6,1.3 -5.7,0.3 -7,-2.2 -1.3,-2.4 -0.4,-5.6 2.1,-7 2.5,-1.5 5.7,-0.5 7.1,2.1 1.5,2.7 0.4,5.9 -2.2,7.1 z"
   id="path2576"
   style="fill:#00ea82;fill-opacity:1" />
	</g>
	<g
   id="g2582"
   style="fill:#00ea82;fill-opacity:1">
		<path
   fill="#FFFFFF"
   d="m 1192.8,1578.8 c -2.7,1.1 -5.7,-0.1 -6.8,-2.6 -1.1,-2.5 0,-5.6 2.6,-6.8 2.6,-1.3 5.8,-0.1 7,2.6 1.1,2.6 -0.2,5.7 -2.8,6.8 z"
   id="path2580"
   style="fill:#00ea82;fill-opacity:1" />
	</g>
	<g
   id="g2586"
   style="fill:#00ea82;fill-opacity:1">
		<path
   fill="#FFFFFF"
   d="m 1197.5,1591.3 c -2.7,1 -5.7,-0.4 -6.7,-3 -1,-2.6 0.3,-5.6 3,-6.7 2.7,-1.1 5.8,0.2 6.8,3 1.1,2.8 -0.3,5.8 -3.1,6.7 z"
   id="path2584"
   style="fill:#00ea82;fill-opacity:1" />
	</g>
	<g
   id="g2590"
   style="fill:#00ea82;fill-opacity:1">
		<path
   fill="#FFFFFF"
   d="m 1201.7,1604.1 c -2.8,0.8 -5.7,-0.7 -6.5,-3.3 -0.9,-2.7 0.6,-5.6 3.4,-6.5 2.7,-0.9 5.7,0.5 6.6,3.3 0.9,2.7 -0.7,5.6 -3.5,6.5 z"
   id="path2588"
   style="fill:#00ea82;fill-opacity:1" />
	</g>
	<g
   id="g2594"
   style="fill:#00ea82;fill-opacity:1">
		<path
   fill="#FFFFFF"
   d="m 1205.3,1617 c -2.8,0.7 -5.7,-0.9 -6.4,-3.6 -0.7,-2.7 0.9,-5.6 3.6,-6.4 2.8,-0.8 5.7,0.8 6.5,3.6 0.8,2.8 -0.9,5.6 -3.7,6.4 z"
   id="path2592"
   style="fill:#00ea82;fill-opacity:1" />
	</g>
	<g
   id="g2598"
   style="fill:#00ea82;fill-opacity:1">
		<path
   fill="#FFFFFF"
   d="m 1208.5,1630 c -2.8,0.6 -5.6,-1.1 -6.3,-3.9 -0.6,-2.7 1.1,-5.5 3.9,-6.2 2.8,-0.7 5.7,1 6.3,3.8 0.7,2.8 -1.1,5.7 -3.9,6.3 z"
   id="path2596"
   style="fill:#00ea82;fill-opacity:1" />
	</g>
	<g
   id="g2602"
   style="fill:#00ea82;fill-opacity:1">
		<path
   fill="#FFFFFF"
   d="m 1211.1,1643.1 c -2.9,0.5 -5.6,-1.3 -6.1,-4.1 -0.5,-2.8 1.3,-5.5 4.1,-6.1 2.8,-0.6 5.6,1.2 6.2,4 0.6,2.9 -1.3,5.7 -4.2,6.2 z"
   id="path2600"
   style="fill:#00ea82;fill-opacity:1" />
	</g>
	<g
   id="g2606"
   style="fill:#00ea82;fill-opacity:1">
		<path
   fill="#FFFFFF"
   d="m 1213.4,1656.3 c -2.9,0.4 -5.5,-1.5 -6,-4.2 -0.5,-2.8 1.4,-5.5 4.3,-6 2.8,-0.5 5.6,1.4 6.1,4.2 0.5,2.9 -1.5,5.5 -4.4,6 z"
   id="path2604"
   style="fill:#00ea82;fill-opacity:1" />
	</g>
	<g
   id="g2610"
   style="fill:#00ea82;fill-opacity:1">
		<path
   fill="#FFFFFF"
   d="m 1215.3,1669.5 c -2.9,0.4 -5.5,-1.6 -5.9,-4.4 -0.4,-2.8 1.6,-5.4 4.5,-5.9 2.9,-0.4 5.5,1.5 5.9,4.4 0.4,2.9 -1.6,5.6 -4.5,5.9 z"
   id="path2608"
   style="fill:#00ea82;fill-opacity:1" />
	</g>
	<g
   id="g2614"
   style="fill:#00ea82;fill-opacity:1">
		<path
   fill="#FFFFFF"
   d="m 1216.9,1682.8 c -2.9,0.3 -5.4,-1.8 -5.8,-4.6 -0.3,-2.8 1.7,-5.4 4.6,-5.7 2.9,-0.4 5.5,1.7 5.8,4.6 0.4,2.9 -1.8,5.5 -4.6,5.7 z"
   id="path2612"
   style="fill:#00ea82;fill-opacity:1" />
	</g>
	<g
   id="g2618"
   style="fill:#00ea82;fill-opacity:1">
		<path
   fill="#FFFFFF"
   d="m 1218.1,1696.2 c -2.9,0.2 -5.4,-1.9 -5.7,-4.7 -0.2,-2.8 1.9,-5.3 4.8,-5.6 2.9,-0.3 5.5,1.8 5.7,4.7 0.2,2.8 -1.9,5.4 -4.8,5.6 z"
   id="path2616"
   style="fill:#00ea82;fill-opacity:1" />
	</g>
	<g
   id="g2622"
   style="fill:#00ea82;fill-opacity:1">
		<path
   fill="#FFFFFF"
   d="m 1218.9,1709.5 c -2.9,0.1 -5.3,-2 -5.5,-4.9 -0.2,-2.8 2,-5.3 4.9,-5.5 2.9,-0.2 5.4,2 5.6,4.9 0.1,2.9 -2.1,5.4 -5,5.5 z"
   id="path2620"
   style="fill:#00ea82;fill-opacity:1" />
	</g>
	<g
   id="g2626"
   style="fill:#00ea82;fill-opacity:1">
		<path
   fill="#FFFFFF"
   d="m 1219.5,1722.9 c -2.9,0.1 -5.3,-2.2 -5.4,-5 -0.1,-2.8 2.1,-5.2 5,-5.4 2.9,-0.1 5.4,2.1 5.5,5 0,2.9 -2.2,5.3 -5.1,5.4 z"
   id="path2624"
   style="fill:#00ea82;fill-opacity:1" />
	</g>
	<g
   id="g2630"
   style="fill:#00ea82;fill-opacity:1">
		<path
   fill="#FFFFFF"
   d="m 1219.7,1736.3 c -2.9,0 -5.2,-2.3 -5.3,-5.1 0,-2.8 2.3,-5.2 5.2,-5.3 2.9,-0.1 5.3,2.2 5.3,5.1 0,2.9 -2.3,5.3 -5.2,5.3 z"
   id="path2628"
   style="fill:#00ea82;fill-opacity:1" />
	</g>
</g>

</svg>
